<svg xmlns="http://www.w3.org/2000/svg" width="248" height="42" viewBox="0 0 248 42">
    <defs>
        <clipPath id="5xdjkmmroa">
            <path data-name="Rectangle 3452" style="fill:none" d="M0 0h112.702v36.187H0z"/>
        </clipPath>
    </defs>
    <g data-name="Group 4126">
        <text transform="translate(118 35)" style="font-size:35px;font-family:Lato-Regular,Lato;fill:#2053a4"><tspan x="0" y="0">Connect</tspan></text>
        <g data-name="Group 4125">
            <g data-name="Group 4124" style="clip-path:url(#5xdjkmmroa)" transform="translate(0 3.279)">
                <path data-name="Path 3402" d="M295.564 18.595c.751 0 1.5-.005 2.252 0 .17 0 .231-.044.254-.217.122-.929.259-1.856.39-2.784.217-1.53.449-3.058.643-4.591.106-.836.237-1.668.346-2.5.1-.786.243-1.569.339-2.356a8.234 8.234 0 0 1 .7-2.577 6.538 6.538 0 0 1 2.633-2.963 3.66 3.66 0 0 1 5.537 1.954 5.714 5.714 0 0 1 .342 1.5 8.415 8.415 0 0 1-.14 2.386c-.1.562-.146 1.133-.223 1.7-.122.9-.249 1.8-.374 2.7l-.444 3.173-.375 2.7-.457 3.286-.362 2.582-.457 3.285c-.118.846-.236 1.692-.359 2.537a24.782 24.782 0 0 1-.466 2.937 6.7 6.7 0 0 1-3.135 4.258 3.632 3.632 0 0 1-3.544.237 4 4 0 0 1-2-2.393 6.116 6.116 0 0 1-.311-2.61c.054-.683.191-1.359.283-2.038.12-.886.228-1.773.349-2.658.09-.661.2-1.32.29-1.98.073-.512.137-1.025.213-1.536.021-.144-.021-.183-.163-.183h-4.641c-.142 0-.195.045-.206.194-.038.518-.134 1.03-.215 1.543-.078.5-.124 1-.191 1.5-.119.884-.234 1.769-.366 2.651a27.824 27.824 0 0 1-.462 2.969 6.788 6.788 0 0 1-3.12 4.3 4.119 4.119 0 0 1-2.182.591c-1.388-.01-2.776-.006-4.163 0-.207 0-.282-.013-.234-.271.111-.594.157-1.2.241-1.8.09-.646.2-1.289.287-1.934.092-.662.168-1.326.26-1.988.122-.871.267-1.739.375-2.611.083-.665.189-1.327.273-1.992q.112-.89.253-1.779c.094-.6.153-1.206.236-1.808.106-.762.234-1.521.328-2.285.082-.665.2-1.326.27-1.992.1-.883.266-1.758.374-2.639.08-.65.191-1.3.263-1.947.1-.881.264-1.754.372-2.634.082-.665.178-1.329.271-1.991.126-.893.257-1.787.379-2.68a7.439 7.439 0 0 1 1.709-3.885 5.317 5.317 0 0 1 2.585-1.789 3.493 3.493 0 0 1 4.116 1.59 5.356 5.356 0 0 1 .755 2.395 10.266 10.266 0 0 1-.132 2.2c-.088.708-.2 1.412-.286 2.121q-.158 1.351-.368 2.7c-.144.925-.258 1.854-.391 2.78-.1.72-.2 1.442-.29 2.166-.087.739-.2 1.475-.3 2.212-.038.268-.041.268.236.268h2.207" transform="translate(-255.944)" style="fill:#2053a4"/>
                <path data-name="Path 3403" d="M587.125 36.323h-5.278c-.276 0-.268 0-.231-.261.109-.768.208-1.538.32-2.306.1-.67.21-1.338.307-2.008.085-.586.156-1.174.239-1.761.062-.444.135-.887.2-1.331.147-1.026.29-2.052.439-3.077.092-.635.2-1.269.287-1.9.181-1.255.354-2.511.535-3.766.123-.857.258-1.712.382-2.569.134-.93.259-1.86.393-2.79.138-.957.289-1.913.42-2.871.08-.579.155-1.159.285-1.729a10.049 10.049 0 0 1 1.137-2.876 13.908 13.908 0 0 1 8.106-6.349 12.069 12.069 0 0 1 2.619-.508 14.1 14.1 0 0 1 2.05-.021 9.882 9.882 0 0 1 4.109 1.1 7.69 7.69 0 0 1 2.162 1.687 7.154 7.154 0 0 1 1.507 2.648 8.062 8.062 0 0 1 .313 1.691 10.463 10.463 0 0 1-.184 2.4 13.064 13.064 0 0 1-.533 2.471 12.234 12.234 0 0 1-2.466 4.1 13.689 13.689 0 0 1-.964 1c-.1.093-.128.153-.02.272a7.128 7.128 0 0 1 1.809 3.8 7.293 7.293 0 0 1-.007 2.028c-.093.721-.205 1.438-.311 2.156a11.72 11.72 0 0 1-3.71 6.879 14 14 0 0 1-7.14 3.69 12 12 0 0 1-2.363.207c-1.471-.008-2.942 0-4.413 0m3.539-8.3a3.38 3.38 0 0 0 .445 1.8 2.218 2.218 0 0 0 2.884.962 4.042 4.042 0 0 0 1.9-1.767 4.574 4.574 0 0 0 .594-1.837c.031-.3.065-.6.113-.889.081-.49.13-.984.214-1.474.089-.517.156-1.039.219-1.56a7.837 7.837 0 0 0 .149-2.207 3.344 3.344 0 0 0-.619-1.537 2.347 2.347 0 0 0-2.719-.7 3.493 3.493 0 0 0-1.519 1.217 4.7 4.7 0 0 0-.928 2.336c-.045.377-.1.753-.155 1.129-.069.479-.144.957-.211 1.436s-.122.977-.192 1.464a10.246 10.246 0 0 0-.179 1.625m2.051-14.649a2.962 2.962 0 0 0 .42 1.664 2.211 2.211 0 0 0 2.061 1.2 2.958 2.958 0 0 0 1.928-.9 4.72 4.72 0 0 0 1.112-1.673 13.79 13.79 0 0 0 .56-2.676c.122-.642.178-1.3.3-1.938a3.33 3.33 0 0 0-.459-2.467 2.267 2.267 0 0 0-2.573-.99 3.464 3.464 0 0 0-1.958 1.545 6.831 6.831 0 0 0-.935 2.964c-.076.516-.177 1.029-.248 1.546a9.817 9.817 0 0 0-.207 1.725" transform="translate(-528.75 -.154)" style="fill:#2053a4"/>
                <path data-name="Path 3404" d="M9.49 24.536c-.075.532-.141 1.014-.213 1.5-.106.712-.22 1.423-.322 2.136-.1.676-.175 1.354-.27 2.029a24.152 24.152 0 0 1-.376 2.4 5.826 5.826 0 0 1-2.342 3.536 3.705 3.705 0 0 1-2.2.685c-1.19-.011-2.381 0-3.572 0-.179 0-.229-.027-.182-.233.082-.36.1-.734.154-1.1.063-.441.137-.879.2-1.32.089-.639.167-1.279.258-1.918.082-.578.181-1.153.263-1.731s.153-1.183.237-1.773c.092-.642.2-1.28.288-1.923.157-1.167.335-2.331.493-3.5.1-.732.212-1.463.316-2.195.095-.663.181-1.327.276-1.99.075-.52.154-1.041.231-1.562.246-1.653.489-3.307.709-4.964a13.825 13.825 0 0 1 .964-3.989 13.082 13.082 0 0 1 4.286-5.175A14.021 14.021 0 0 1 14.4.943c.467-.089.939-.135 1.413-.179a11.339 11.339 0 0 1 1.54-.035A9.507 9.507 0 0 1 22.9 2.567a7.183 7.183 0 0 1 2.781 4.542 8.1 8.1 0 0 1-.064 3.063c-.113.572-.154 1.159-.238 1.737a17.643 17.643 0 0 1-.441 2.515 10.115 10.115 0 0 1-2.5 4.141 16.066 16.066 0 0 1-3.853 2.9c-.172.1-.2.155-.092.333 1.315 2.213 2.611 4.438 3.933 6.646a4.976 4.976 0 0 1 .6 3.406 6.639 6.639 0 0 1-.923 2.561 5.064 5.064 0 0 1-2.4 2.143 3.09 3.09 0 0 1-4.018-1.35q-2.581-4.424-5.136-8.863l-.911-1.572c-.037-.064-.078-.126-.147-.235m3.136-4.6a2.215 2.215 0 0 0 1.112-.272A3.5 3.5 0 0 0 15.4 17.61a14.505 14.505 0 0 0 .424-2.5c.091-.6.155-1.205.237-1.807.1-.734.209-1.468.312-2.2.085-.6.165-1.2.251-1.8a3.852 3.852 0 0 0-.073-1.679 2.068 2.068 0 0 0-3.327-1.171 3.817 3.817 0 0 0-1.579 2.7c-.127.82-.219 1.645-.332 2.468-.1.716-.209 1.431-.307 2.148-.124.9-.22 1.813-.367 2.713a3.93 3.93 0 0 0 .125 2.044 2.035 2.035 0 0 0 1.86 1.419" transform="translate(0 -.653)" style="fill:#2053a4"/>
                <path data-name="Path 3405" d="M894.681 51.05c-.042-.04-.087-.08-.13-.122l-2.011-2.01q-7.087-7.085-14.178-14.165c-.159-.158-.147-.229 0-.381q8.076-8.058 16.14-16.128c.151-.152.223-.162.38 0q8.062 8.072 16.138 16.13c.147.146.174.218.01.381q-8.084 8.066-16.158 16.142c-.057.057-.1.133-.2.157" transform="translate(-798.445 -16.479)" style="fill:#db2230"/>
            </g>
        </g>
    </g>
</svg>
